<!-- Generated by IcoMoon.io -->
<svg version="1.1" xmlns="http://www.w3.org/2000/svg" width="32" height="32" viewBox="0 0 32 32">
<title>pay_bill</title>
<path d="M21.869 1.651h-8.635c2.708 1.597 4.496 4.497 4.501 7.816v0.001c0.007 0.093 0.011 0.201 0.011 0.31s-0.004 0.218-0.011 0.325l0.001-0.014v0.099l-0.325 3.217c0.202 0.705 0.321 1.516 0.325 2.354v0.002c0.007 0.093 0.011 0.201 0.011 0.31s-0.004 0.218-0.011 0.325l0.001-0.014v0.099l-0.268 3.344c0.211 0.726 0.333 1.56 0.333 2.423 0 3.2-1.672 6.009-4.19 7.601l-0.037 0.022h13.94c1.558 0 2.822-1.263 2.822-2.822v0-16.931zM20.459 11.527v-7.76l7.76 7.76zM8.677 6.843c2.738 0.014 5.185 1.243 6.832 3.176l0.011 0.013c0-0.183 0-0.367 0-0.55 0-3.834-3.108-6.942-6.942-6.942s-6.942 3.108-6.942 6.942v0c0 0.183 0 0.367 0 0.55 1.667-1.957 4.133-3.19 6.887-3.19 0.054 0 0.108 0 0.161 0.001l-0.008-0zM8.677 13.136c2.738 0.014 5.185 1.243 6.832 3.176l0.011 0.013c0-0.183 0-0.367 0-0.55 0-3.834-3.108-6.942-6.942-6.942s-6.942 3.108-6.942 6.942v0c0 0.183 0 0.367 0 0.55 1.667-1.957 4.133-3.19 6.887-3.19 0.054 0 0.108 0 0.161 0.001l-0.008-0zM15.619 22.222c0 3.834-3.108 6.942-6.942 6.942s-6.942-3.108-6.942-6.942c0-3.834 3.108-6.942 6.942-6.942s6.942 3.108 6.942 6.942z"></path>
</svg>
